<svg id="visual" viewBox="0 0 900 600" width="900" height="600" xmlns="http://www.w3.org/2000/svg" xmlns:xlink="http://www.w3.org/1999/xlink" version="1.1"><g stroke-width="1" stroke-linejoin="bevel"><path d="M502 286L486 212L400 234Z" fill="#b0b0b0" stroke="#b0b0b0"></path><path d="M400 234L392 311L502 286Z" fill="#bfbfbf" stroke="#bfbfbf"></path><path d="M392 311L407 371L502 286Z" fill="#efefef" stroke="#efefef"></path><path d="M400 234L335 294L392 311Z" fill="#efefef" stroke="#efefef"></path><path d="M392 311L315 380L407 371Z" fill="#d7d7d7" stroke="#d7d7d7"></path><path d="M407 371L501 413L502 286Z" fill="#b0b0b0" stroke="#b0b0b0"></path><path d="M618 177L467 90L486 212Z" fill="#dfdfdf" stroke="#dfdfdf"></path><path d="M486 212L375 101L400 234Z" fill="#b8b8b8" stroke="#b8b8b8"></path><path d="M400 234L269 206L335 294Z" fill="#dfdfdf" stroke="#dfdfdf"></path><path d="M605 363L622 268L502 286Z" fill="#dfdfdf" stroke="#dfdfdf"></path><path d="M502 286L622 268L486 212Z" fill="#cfcfcf" stroke="#cfcfcf"></path><path d="M467 90L375 101L486 212Z" fill="#f7f7f7" stroke="#f7f7f7"></path><path d="M335 294L315 380L392 311Z" fill="#ffffff" stroke="#ffffff"></path><path d="M407 371L372 491L501 413Z" fill="#c7c7c7" stroke="#c7c7c7"></path><path d="M173 292L315 380L335 294Z" fill="#bfbfbf" stroke="#bfbfbf"></path><path d="M622 268L618 177L486 212Z" fill="#d7d7d7" stroke="#d7d7d7"></path><path d="M501 413L605 363L502 286Z" fill="#cfcfcf" stroke="#cfcfcf"></path><path d="M375 101L269 206L400 234Z" fill="#b0b0b0" stroke="#b0b0b0"></path><path d="M280 0L291 111L375 101Z" fill="#b8b8b8" stroke="#b8b8b8"></path><path d="M375 101L291 111L269 206Z" fill="#c7c7c7" stroke="#c7c7c7"></path><path d="M700 130L625 121L618 177Z" fill="#e7e7e7" stroke="#e7e7e7"></path><path d="M618 177L625 121L467 90Z" fill="#f7f7f7" stroke="#f7f7f7"></path><path d="M605 363L678 318L622 268Z" fill="#b8b8b8" stroke="#b8b8b8"></path><path d="M622 268L700 222L618 177Z" fill="#e7e7e7" stroke="#e7e7e7"></path><path d="M291 111L225 201L269 206Z" fill="#bfbfbf" stroke="#bfbfbf"></path><path d="M269 206L173 292L335 294Z" fill="#ffffff" stroke="#ffffff"></path><path d="M315 380L372 491L407 371Z" fill="#d7d7d7" stroke="#d7d7d7"></path><path d="M586 494L671 389L605 363Z" fill="#ffffff" stroke="#ffffff"></path><path d="M678 318L700 222L622 268Z" fill="#e7e7e7" stroke="#e7e7e7"></path><path d="M586 494L605 363L501 413Z" fill="#ffffff" stroke="#ffffff"></path><path d="M605 363L671 389L678 318Z" fill="#c7c7c7" stroke="#c7c7c7"></path><path d="M830 311L763 171L700 222Z" fill="#c7c7c7" stroke="#c7c7c7"></path><path d="M612 0L470 0L467 90Z" fill="#bfbfbf" stroke="#bfbfbf"></path><path d="M467 90L379 0L375 101Z" fill="#c7c7c7" stroke="#c7c7c7"></path><path d="M315 380L308 474L372 491Z" fill="#cfcfcf" stroke="#cfcfcf"></path><path d="M217 417L308 474L315 380Z" fill="#dfdfdf" stroke="#dfdfdf"></path><path d="M470 0L379 0L467 90Z" fill="#bfbfbf" stroke="#bfbfbf"></path><path d="M527 533L586 494L501 413Z" fill="#efefef" stroke="#efefef"></path><path d="M700 222L700 130L618 177Z" fill="#dfdfdf" stroke="#dfdfdf"></path><path d="M625 121L612 0L467 90Z" fill="#d7d7d7" stroke="#d7d7d7"></path><path d="M225 201L173 292L269 206Z" fill="#cfcfcf" stroke="#cfcfcf"></path><path d="M173 292L217 417L315 380Z" fill="#ffffff" stroke="#ffffff"></path><path d="M490 600L527 533L372 491Z" fill="#c7c7c7" stroke="#c7c7c7"></path><path d="M372 491L527 533L501 413Z" fill="#dfdfdf" stroke="#dfdfdf"></path><path d="M666 0L612 0L625 121Z" fill="#d7d7d7" stroke="#d7d7d7"></path><path d="M379 0L280 0L375 101Z" fill="#e7e7e7" stroke="#e7e7e7"></path><path d="M291 111L185 66L225 201Z" fill="#cfcfcf" stroke="#cfcfcf"></path><path d="M108 193L124 285L173 292Z" fill="#b8b8b8" stroke="#b8b8b8"></path><path d="M830 311L700 222L678 318Z" fill="#ffffff" stroke="#ffffff"></path><path d="M700 222L763 171L700 130Z" fill="#dfdfdf" stroke="#dfdfdf"></path><path d="M700 130L666 0L625 121Z" fill="#efefef" stroke="#efefef"></path><path d="M280 0L185 66L291 111Z" fill="#cfcfcf" stroke="#cfcfcf"></path><path d="M108 193L173 292L225 201Z" fill="#d7d7d7" stroke="#d7d7d7"></path><path d="M173 292L100 416L217 417Z" fill="#c7c7c7" stroke="#c7c7c7"></path><path d="M795 94L666 0L700 130Z" fill="#d7d7d7" stroke="#d7d7d7"></path><path d="M586 494L708 475L671 389Z" fill="#cfcfcf" stroke="#cfcfcf"></path><path d="M671 389L804 374L678 318Z" fill="#c7c7c7" stroke="#c7c7c7"></path><path d="M710 600L708 475L586 494Z" fill="#b0b0b0" stroke="#b0b0b0"></path><path d="M217 417L211 497L308 474Z" fill="#f7f7f7" stroke="#f7f7f7"></path><path d="M274 600L377 600L372 491Z" fill="#b8b8b8" stroke="#b8b8b8"></path><path d="M124 474L211 497L217 417Z" fill="#efefef" stroke="#efefef"></path><path d="M377 600L490 600L372 491Z" fill="#cfcfcf" stroke="#cfcfcf"></path><path d="M527 533L595 600L586 494Z" fill="#bfbfbf" stroke="#bfbfbf"></path><path d="M274 600L372 491L308 474Z" fill="#e7e7e7" stroke="#e7e7e7"></path><path d="M104 133L108 193L225 201Z" fill="#d7d7d7" stroke="#d7d7d7"></path><path d="M280 0L193 0L185 66Z" fill="#efefef" stroke="#efefef"></path><path d="M185 66L104 133L225 201Z" fill="#c7c7c7" stroke="#c7c7c7"></path><path d="M95 0L104 133L185 66Z" fill="#e7e7e7" stroke="#e7e7e7"></path><path d="M708 475L804 374L671 389Z" fill="#e7e7e7" stroke="#e7e7e7"></path><path d="M490 600L595 600L527 533Z" fill="#c7c7c7" stroke="#c7c7c7"></path><path d="M708 475L832 493L804 374Z" fill="#cfcfcf" stroke="#cfcfcf"></path><path d="M763 171L795 94L700 130Z" fill="#efefef" stroke="#efefef"></path><path d="M900 218L795 94L763 171Z" fill="#b8b8b8" stroke="#b8b8b8"></path><path d="M804 374L830 311L678 318Z" fill="#c7c7c7" stroke="#c7c7c7"></path><path d="M211 497L274 600L308 474Z" fill="#efefef" stroke="#efefef"></path><path d="M0 307L100 416L124 285Z" fill="#e7e7e7" stroke="#e7e7e7"></path><path d="M124 285L100 416L173 292Z" fill="#e7e7e7" stroke="#e7e7e7"></path><path d="M211 497L208 600L274 600Z" fill="#e7e7e7" stroke="#e7e7e7"></path><path d="M0 307L124 285L108 193Z" fill="#c7c7c7" stroke="#c7c7c7"></path><path d="M100 416L124 474L217 417Z" fill="#efefef" stroke="#efefef"></path><path d="M118 600L208 600L211 497Z" fill="#efefef" stroke="#efefef"></path><path d="M595 600L710 600L586 494Z" fill="#bfbfbf" stroke="#bfbfbf"></path><path d="M900 85L806 0L795 94Z" fill="#d7d7d7" stroke="#d7d7d7"></path><path d="M795 94L806 0L666 0Z" fill="#efefef" stroke="#efefef"></path><path d="M193 0L95 0L185 66Z" fill="#c7c7c7" stroke="#c7c7c7"></path><path d="M0 178L0 307L108 193Z" fill="#bfbfbf" stroke="#bfbfbf"></path><path d="M775 600L832 493L708 475Z" fill="#b0b0b0" stroke="#b0b0b0"></path><path d="M900 386L900 324L830 311Z" fill="#bfbfbf" stroke="#bfbfbf"></path><path d="M900 324L900 218L830 311Z" fill="#b0b0b0" stroke="#b0b0b0"></path><path d="M830 311L900 218L763 171Z" fill="#d7d7d7" stroke="#d7d7d7"></path><path d="M900 386L830 311L804 374Z" fill="#cfcfcf" stroke="#cfcfcf"></path><path d="M100 416L0 527L124 474Z" fill="#e7e7e7" stroke="#e7e7e7"></path><path d="M124 474L118 600L211 497Z" fill="#f7f7f7" stroke="#f7f7f7"></path><path d="M0 178L108 193L104 133Z" fill="#f7f7f7" stroke="#f7f7f7"></path><path d="M0 119L0 178L104 133Z" fill="#ffffff" stroke="#ffffff"></path><path d="M832 493L900 386L804 374Z" fill="#bfbfbf" stroke="#bfbfbf"></path><path d="M710 600L775 600L708 475Z" fill="#b8b8b8" stroke="#b8b8b8"></path><path d="M832 493L900 472L900 386Z" fill="#cfcfcf" stroke="#cfcfcf"></path><path d="M95 0L0 119L104 133Z" fill="#b8b8b8" stroke="#b8b8b8"></path><path d="M0 307L0 412L100 416Z" fill="#d7d7d7" stroke="#d7d7d7"></path><path d="M0 527L118 600L124 474Z" fill="#bfbfbf" stroke="#bfbfbf"></path><path d="M900 218L900 85L795 94Z" fill="#b0b0b0" stroke="#b0b0b0"></path><path d="M900 600L900 472L832 493Z" fill="#e7e7e7" stroke="#e7e7e7"></path><path d="M900 85L900 0L806 0Z" fill="#e7e7e7" stroke="#e7e7e7"></path><path d="M95 0L0 0L0 119Z" fill="#f7f7f7" stroke="#f7f7f7"></path><path d="M0 412L0 527L100 416Z" fill="#bfbfbf" stroke="#bfbfbf"></path><path d="M775 600L900 600L832 493Z" fill="#efefef" stroke="#efefef"></path><path d="M0 527L0 600L118 600Z" fill="#d7d7d7" stroke="#d7d7d7"></path></g></svg>